<?xml version="1.0" encoding="UTF-8"?>
<svg version="1.1" xmlns="http://www.w3.org/2000/svg" width="500" height="500">
<path d="M0 0 C165 0 330 0 500 0 C500 165 500 330 500 500 C335 500 170 500 0 500 C0 335 0 170 0 0 Z " fill="#FED5FE" transform="translate(0,0)"/>
<path d="M0 0 C0.72960937 0.24492187 1.45921875 0.48984375 2.2109375 0.7421875 C10.50592999 3.94128017 16.39072964 9.7525555 20.2109375 17.75 C24.78627314 30.79650163 25.67851843 48.7260155 20.25390625 61.59765625 C19.84011719 62.39042969 19.42632812 63.18320312 19 64 C18.57589844 64.82371094 18.15179688 65.64742188 17.71484375 66.49609375 C12.85932203 74.732898 5.10267567 79.49489848 -4 82 C-7.13810483 82.4185946 -10.21208094 82.47765393 -13.375 82.4375 C-14.62953979 82.42614014 -14.62953979 82.42614014 -15.90942383 82.41455078 C-22.27868312 82.24470387 -27.47608535 81.34149846 -33 78 C-33.71285156 77.5875 -34.42570313 77.175 -35.16015625 76.75 C-42.64828967 71.82322811 -47.24132085 63.72471328 -49.53515625 55.16015625 C-51.7020641 40.42882472 -51.25012826 23.78988138 -43 11 C-32.91260045 -1.84298187 -15.11831405 -5.24021244 0 0 Z " fill="#040304" transform="translate(226,212)"/>
<path d="M0 0 C5 2.5 5 2.5 7 5 C7 5.99 7 6.98 7 8 C5.43945312 9.53393555 5.43945312 9.53393555 3.28125 11.13671875 C2.13076172 12.00200195 2.13076172 12.00200195 0.95703125 12.88476562 C0.14621094 13.47966797 -0.66460937 14.07457031 -1.5 14.6875 C-2.71623047 15.59725586 -2.71623047 15.59725586 -3.95703125 16.52539062 C-5.96515699 18.02557868 -7.97949642 19.51654829 -10 21 C-8.90300781 21.28101563 -7.80601562 21.56203125 -6.67578125 21.8515625 C-1.95409409 23.32677613 0.58109358 25.6379487 3.12153625 29.86701965 C4.13189195 32.32024423 4.24750459 34.10470904 4.24291992 36.75268555 C4.24599655 37.69013107 4.24907318 38.6275766 4.25224304 39.59342957 C4.24505753 40.597715 4.23787201 41.60200043 4.23046875 42.63671875 C4.23001053 43.6719014 4.22955231 44.70708405 4.2290802 45.77363586 C4.2260621 47.95823312 4.21818905 50.14282831 4.20581055 52.32739258 C4.18751289 55.68513538 4.18530119 59.04260309 4.18554688 62.40039062 C4.18063318 64.52083574 4.17480551 66.64127897 4.16796875 68.76171875 C4.16685593 69.77207687 4.1657431 70.782435 4.16459656 71.82341003 C4.15821671 72.75139908 4.15183685 73.67938812 4.14526367 74.63549805 C4.13954597 75.86649483 4.13954597 75.86649483 4.13371277 77.12236023 C4 79 4 79 3 80 C1.1875 80.1328125 1.1875 80.1328125 -1 80.125 C-1.721875 80.12757813 -2.44375 80.13015625 -3.1875 80.1328125 C-5 80 -5 80 -6 79 C-6.11203229 77.50706674 -6.15672163 76.00899883 -6.17358398 74.51196289 C-6.18707382 73.55749771 -6.20056366 72.60303253 -6.21446228 71.61964417 C-6.22490067 70.58113815 -6.23533905 69.54263214 -6.24609375 68.47265625 C-6.27902667 66.29752193 -6.31223841 64.12239182 -6.34570312 61.94726562 C-6.39319628 58.49945937 -6.43762307 55.05167086 -6.47680664 51.60375977 C-6.51638889 48.28904239 -6.56796402 44.97468017 -6.62109375 41.66015625 C-6.6295079 40.62367447 -6.63792206 39.58719269 -6.64659119 38.51930237 C-6.67155418 37.08287636 -6.67155418 37.08287636 -6.69702148 35.61743164 C-6.70732895 34.77217422 -6.71763641 33.92691681 -6.72825623 33.05604553 C-6.81735303 30.77707415 -6.81735303 30.77707415 -9 29 C-10.98821313 28.60235737 -12.98944339 28.26224651 -15 28 C-14.99333817 28.56518845 -14.98667633 29.13037689 -14.97981262 29.71269226 C-14.91338276 35.60129095 -14.86816768 41.48978297 -14.83520508 47.37866211 C-14.82012948 49.57564621 -14.79966574 51.77260026 -14.77368164 53.96948242 C-14.73724498 57.12947 -14.72026116 60.28905924 -14.70703125 63.44921875 C-14.69154739 64.42960617 -14.67606354 65.40999359 -14.66011047 66.42008972 C-14.65798838 75.04148601 -14.65798838 75.04148601 -18 79 C-20.98021812 80.49010906 -24.03924191 80.18333533 -27.30859375 80.203125 C-28.3923806 80.21167511 -28.3923806 80.21167511 -29.49806213 80.22039795 C-31.02709488 80.22984718 -32.55614799 80.23638163 -34.08520508 80.24023438 C-36.42500241 80.24994812 -38.76392423 80.28097377 -41.10351562 80.3125 C-42.58853645 80.31902937 -44.07356355 80.3242801 -45.55859375 80.328125 C-46.2586705 80.3404718 -46.95874725 80.3528186 -47.68003845 80.36553955 C-52.46670015 80.34357444 -52.46670015 80.34357444 -54.68437195 78.91485596 C-56.6897503 75.99608976 -56.3816419 73.51717426 -56.38818359 70.00585938 C-56.39344055 69.29822952 -56.39869751 68.59059967 -56.40411377 67.86152649 C-56.41731947 65.52204323 -56.40857415 63.1832402 -56.3984375 60.84375 C-56.40045808 59.21854522 -56.40336939 57.59334132 -56.40713501 55.96813965 C-56.41155912 52.56184254 -56.40512466 49.15578141 -56.39111328 45.74951172 C-56.37402117 41.38115404 -56.38386191 37.01334929 -56.40183067 32.6450119 C-56.41266627 29.2889997 -56.40922324 25.9331188 -56.4014473 22.57710266 C-56.39944466 20.96633336 -56.4019068 19.35555218 -56.40888596 17.74479675 C-56.41649698 15.49425639 -56.40490228 13.24461402 -56.38818359 10.99414062 C-56.38579681 9.71301392 -56.38341003 8.43188721 -56.38095093 7.11193848 C-56 4 -56 4 -54.68812561 2.08811951 C-51.84297021 0.2542103 -48.68806467 0.55296057 -45.41015625 0.56640625 C-44.29875526 0.55854347 -44.29875526 0.55854347 -43.16490173 0.55052185 C-41.5989609 0.54410317 -40.03297184 0.54543672 -38.46704102 0.55395508 C-36.07415608 0.56245858 -33.68366423 0.53371722 -31.29101562 0.50195312 C-29.76822988 0.50034078 -28.24543992 0.50091929 -26.72265625 0.50390625 C-26.00900406 0.49267227 -25.29535187 0.48143829 -24.56007385 0.46986389 C-21.40693156 0.51396494 -19.29272274 0.82238199 -16.57983398 2.46850586 C-15 5 -15 5 -14 14 C-9.38 9.38 -4.76 4.76 0 0 Z " fill="#040404" transform="translate(164,212)"/>
<path d="M0 0 C1.76654182 -0.00438835 1.76654182 -0.00438835 3.56877136 -0.00886536 C4.83554214 0.00864273 6.10231293 0.02615082 7.4074707 0.04418945 C9.35977348 0.04912163 9.35977348 0.04912163 11.35151672 0.05415344 C14.10127292 0.06178249 16.85050653 0.08231344 19.60009766 0.11328125 C23.13109048 0.15297252 26.66174444 0.17090947 30.19293499 0.18059063 C33.55616928 0.1905421 36.91928511 0.21078585 40.2824707 0.23168945 C41.55531418 0.23907639 42.82815765 0.24646332 44.13957214 0.2540741 C45.89192924 0.27332695 45.89192924 0.27332695 47.6796875 0.29296875 C48.71353073 0.30281296 49.74737396 0.31265717 50.81254578 0.32279968 C53.14575195 0.4699707 53.14575195 0.4699707 54.14575195 1.4699707 C54.28690357 4.14055921 54.18822303 6.79429308 54.14575195 9.4699707 C46.07301874 9.88752587 39.01435668 8.303432 31.14575195 6.4699707 C31.14575195 11.0899707 31.14575195 15.7099707 31.14575195 20.4699707 C38.07575195 20.4699707 45.00575195 20.4699707 52.14575195 20.4699707 C52.14575195 23.1099707 52.14575195 25.7499707 52.14575195 28.4699707 C45.21575195 28.4699707 38.28575195 28.4699707 31.14575195 28.4699707 C31.18055664 31.66040039 31.21536133 34.85083008 31.2512207 38.13793945 C31.27462575 41.23241277 31.29283697 44.32687618 31.31054688 47.42138672 C31.3256211 49.56986921 31.34608384 51.718321 31.37207031 53.86669922 C31.40851309 56.95718978 31.42549214 60.04727301 31.4387207 63.13793945 C31.45420456 64.09645309 31.46968842 65.05496674 31.48564148 66.04252625 C31.48688303 70.97684391 31.46368721 74.51174099 28.14575195 78.4699707 C25.16553384 79.96007976 22.10651004 79.65330603 18.8371582 79.6730957 C17.75337135 79.68164581 17.75337135 79.68164581 16.64768982 79.69036865 C15.11865707 79.69981789 13.58960397 79.70635234 12.06054688 79.71020508 C9.72074954 79.71991882 7.38182773 79.75094447 5.04223633 79.7824707 C3.55721551 79.78900007 2.0721884 79.7942508 0.5871582 79.7980957 C-0.11291855 79.8104425 -0.8129953 79.82278931 -1.5342865 79.83551025 C-6.32457262 79.81352851 -6.32457262 79.81352851 -8.53762817 78.37809753 C-10.53041924 75.49002165 -10.24337853 73.06438549 -10.25830078 69.58349609 C-10.26516403 68.8872261 -10.27202728 68.19095612 -10.27909851 67.47358704 C-10.29740357 65.17139303 -10.29352389 62.86987814 -10.2878418 60.56762695 C-10.29240203 58.96723712 -10.29770713 57.36684925 -10.3037262 55.76646423 C-10.31266469 52.41144865 -10.31022614 49.05667099 -10.30029297 45.70166016 C-10.28880544 41.40278441 -10.30900694 37.10473034 -10.33821011 32.80596256 C-10.35655999 29.50051152 -10.35628207 26.19525779 -10.35057259 22.8897686 C-10.3504192 21.30493454 -10.35647757 19.72008725 -10.36886406 18.13530159 C-10.38374937 15.91829088 -10.37311725 13.70280301 -10.35595703 11.48583984 C-10.35579086 10.22469864 -10.35562469 8.96355743 -10.35545349 7.66419983 C-9.85424805 4.4699707 -9.85424805 4.4699707 -8.18878174 2.06085205 C-5.24716185 0.05626834 -3.54504275 -0.02006898 0 0 Z " fill="#040304" transform="translate(267.854248046875,212.530029296875)"/>
<path d="M0 0 C0.71055038 -0.00175232 1.42110077 -0.00350464 2.15318298 -0.00531006 C4.51295378 -0.00972824 6.87265025 -0.00679072 9.23242188 -0.00341797 C10.86527521 -0.00409102 12.49812845 -0.00506105 14.13098145 -0.00631714 C17.55754549 -0.00779407 20.98408351 -0.00563973 24.41064453 -0.00097656 C28.81271689 0.00472073 33.21472828 0.00144169 37.6167984 -0.00454903 C40.98985253 -0.00815478 44.3628921 -0.00701599 47.73594666 -0.00442123 C49.35953275 -0.003752 50.98312014 -0.00458025 52.60670471 -0.00690079 C54.87195358 -0.00942755 57.13710238 -0.00558641 59.40234375 0 C61.33974426 0.00119339 61.33974426 0.00119339 63.31628418 0.00241089 C66.20117188 0.12939453 66.20117188 0.12939453 67.20117188 1.12939453 C67.27297151 2.64867491 67.28509195 4.17106935 67.26367188 5.69189453 C67.25464844 6.51818359 67.245625 7.34447266 67.23632812 8.19580078 C67.22472656 8.83388672 67.213125 9.47197266 67.20117188 10.12939453 C65.86834413 10.18492902 64.53478323 10.22285642 63.20117188 10.25439453 C62.08742188 10.28919922 62.08742188 10.28919922 60.95117188 10.32470703 C57.21650851 10.05946105 53.82735024 9.06507806 50.20117188 8.12939453 C50.21005432 8.97464188 50.21893677 9.81988922 50.22808838 10.69075012 C50.30819195 18.65119343 50.36911457 26.61150166 50.40842056 34.57225513 C50.42930755 38.66512539 50.45764473 42.75766301 50.50292969 46.8503418 C50.54634893 50.79905662 50.57030061 54.74745125 50.58068085 58.69638634 C50.58807938 60.20393605 50.602527 61.71146798 50.6240921 63.21888161 C50.65307593 65.32851839 50.65713028 67.43682744 50.65527344 69.54663086 C50.66415588 70.74798172 50.67303833 71.94933258 50.68218994 73.18708801 C50.20117188 76.12939453 50.20117188 76.12939453 48.38653564 78.01556396 C45.2300108 79.6243734 42.19677943 79.57775664 38.73242188 79.56298828 C38.01509888 79.56823013 37.29777588 79.57347198 36.55871582 79.57887268 C35.0458302 79.58528095 33.53289467 79.58397131 32.02001953 79.57543945 C29.70840667 79.56692119 27.39925999 79.5957148 25.08789062 79.62744141 C23.61523511 79.62905344 22.14257524 79.62847585 20.66992188 79.62548828 C19.98128052 79.63672226 19.29263916 79.64795624 18.58312988 79.65953064 C15.45011807 79.61413774 13.56141567 79.39620685 11.01580811 77.51081848 C8.61288372 74.35735907 8.71743606 72.46625786 8.74707031 68.52490234 C8.74648621 67.87082901 8.7459021 67.21675568 8.74530029 66.54286194 C8.74807889 64.38886759 8.7791564 62.23627097 8.81054688 60.08251953 C8.81801016 58.58608761 8.82370268 57.08964589 8.82769775 55.59320068 C8.84294748 51.66055163 8.88222276 47.72849646 8.92651367 43.79608154 C8.96748114 39.78096551 8.98571187 35.76575322 9.00585938 31.75048828 C9.04871839 23.87651827 9.11696085 16.00303034 9.20117188 8.12939453 C8.30603882 8.34378174 8.30603882 8.34378174 7.39282227 8.5625 C6.5986792 8.74699707 5.80453613 8.93149414 4.98632812 9.12158203 C4.20394775 9.30575684 3.42156738 9.48993164 2.61547852 9.6796875 C-0.91118926 10.33659134 -4.21983144 10.25953987 -7.79882812 10.12939453 C-7.82572029 8.65032561 -7.84517434 7.1711197 -7.86132812 5.69189453 C-7.87292969 4.86818359 -7.88453125 4.04447266 -7.89648438 3.19580078 C-7.67962109 -1.39302639 -3.74746084 0.00230834 0 0 Z " fill="#010101" transform="translate(331.798828125,212.87060546875)"/>
<path d="M0 0 C1.57394531 -0.05994141 1.57394531 -0.05994141 3.1796875 -0.12109375 C7.16500318 0.63474198 7.84825328 2.13874449 10.125 5.4375 C11.55511475 8.54870605 11.55511475 8.54870605 12.87402344 12.07617188 C13.11844681 12.72235977 13.36287018 13.36854767 13.61470032 14.03431702 C14.41394445 16.15492021 15.19953532 18.28027783 15.984375 20.40625 C16.53858252 21.88949971 17.09338103 23.37252872 17.64874268 24.85534668 C18.80783167 27.95653348 19.96025751 31.06009078 21.10791016 34.16552734 C22.57768644 38.14118511 24.0631131 42.1107741 25.55346298 46.07875824 C26.7004703 49.13745437 27.83954125 52.19905825 28.97620392 55.26161194 C29.52087885 56.72647746 30.06791194 58.19046843 30.61736298 59.65354919 C31.38411271 61.69910882 32.14018002 63.74831129 32.89355469 65.79882812 C33.32561218 66.96289185 33.75766968 68.12695557 34.20281982 69.32629395 C35.07521763 72.26954669 35.4885273 74.39957629 35.125 77.4375 C32.19504486 80.36745514 29.08779769 79.76205117 25.16015625 79.7734375 C24.37104355 79.7800943 23.58193085 79.7867511 22.76890564 79.79360962 C21.09864638 79.80374185 19.4283466 79.80842646 17.75805664 79.80810547 C15.20065694 79.81247751 12.64498459 79.84878479 10.08789062 79.88671875 C8.46615175 79.89258703 6.84440466 79.89655635 5.22265625 79.8984375 C4.07410912 79.91999405 4.07410912 79.91999405 2.90235901 79.94198608 C0.73852539 79.92333984 0.73852539 79.92333984 -2.875 79.4375 C-4.64404297 77.44677734 -4.64404297 77.44677734 -5.875 75.4375 C-8.72066041 74.98031872 -11.21116173 74.74228554 -14.0625 74.6875 C-15.18688477 74.64302734 -15.18688477 74.64302734 -16.33398438 74.59765625 C-18.18041307 74.5270921 -20.02771261 74.48001524 -21.875 74.4375 C-22.205 76.0875 -22.535 77.7375 -22.875 79.4375 C-26.175 79.4375 -29.475 79.4375 -32.875 79.4375 C-31.21401815 70.47023602 -28.07940954 62.01589799 -25.0625 53.4375 C-21.66189158 43.7558663 -18.40787704 34.07876192 -15.56686401 24.21665955 C-14.12636931 19.23081731 -12.55011801 14.34280684 -10.6875 9.5 C-10.44064453 8.83033203 -10.19378906 8.16066406 -9.93945312 7.47070312 C-7.68340843 1.50872901 -6.39523814 0.13290837 0 0 Z " fill="#060506" transform="translate(433.875,212.5625)"/>
<path d="M0 0 C4.14724685 3.60155647 6.04369874 8.44027115 6.72802734 13.85668945 C6.8385133 16.83106149 6.82327504 19.77464784 6.75 22.75 C6.74871094 23.75611328 6.74742187 24.76222656 6.74609375 25.79882812 C6.64994171 33.90230819 5.29761698 39.44773344 0.375 46.0625 C-2.76371188 47.63185594 -5.16355822 47.41451103 -8.625 47.0625 C-12.84584386 43.89686711 -15.20469378 40.09736805 -16.625 35.0625 C-17.07517607 31.0968185 -17.08954413 27.17528009 -17.0625 23.1875 C-17.08248047 22.14980469 -17.10246094 21.11210937 -17.12304688 20.04296875 C-17.11826635 12.46106176 -15.99509153 5.76960068 -10.75 0 C-6.91046147 -1.69391406 -3.89708467 -1.39181595 0 0 Z " fill="#FBD2FB" transform="translate(234.625,228.9375)"/>
<path d="M0 0 C5.75 0.875 5.75 0.875 8 2 C6.74123624 8.55005787 5.32257634 15.03386843 3.6875 21.5 C3.4702124 22.36383301 3.2529248 23.22766602 3.02905273 24.11767578 C1.23218722 31.20282982 -0.6953734 38.24665593 -2.6796875 45.28125 C-3.64604505 48.71262581 -4.58365621 52.15076874 -5.5078125 55.59375 C-8.07829918 65.16180725 -10.65305443 74.66792823 -14 84 C-16.875 84.125 -16.875 84.125 -20 84 C-20.66 83.34 -21.32 82.68 -22 82 C-21.59486315 76.13698182 -19.89760343 70.57565269 -18.3125 64.9375 C-17.76681353 62.96747937 -17.22124387 60.99742638 -16.67578125 59.02734375 C-16.39686035 58.02558105 -16.11793945 57.02381836 -15.83056641 55.99169922 C-14.53701747 51.33233747 -13.26934062 46.66600209 -12 42 C-11.5039598 40.18357912 -11.00786578 38.36717295 -10.51171875 36.55078125 C-9.46568764 32.71669853 -8.42783319 28.88050089 -7.39453125 25.04296875 C-7.12962891 24.06263672 -6.86472656 23.08230469 -6.59179688 22.07226562 C-6.08965706 20.21346736 -5.58950279 18.35413101 -5.09179688 16.49414062 C-3.58450992 10.92520087 -1.88679217 5.45211035 0 0 Z " fill="#0B090B" transform="translate(92,210)"/>
<path d="M0 0 C3.8026029 2.0050088 5.61790841 3.42686262 8 7 C8.73545723 11.96861222 8.50048991 15.96194685 6.3125 20.5 C2.8845152 24.20592951 0.51430531 24.83480306 -4.4375 25.375 C-8.77324712 24.91860557 -10.71260746 23.83911174 -14 21 C-16.64201025 16.94891762 -17.70236884 13.8162435 -17 9 C-12.78298671 1.3190115 -8.69521092 -1.38641145 0 0 Z " fill="#080708" transform="translate(53,268)"/>
<path d="M0 0 C2.475 0.495 2.475 0.495 5 1 C5 22.78 5 44.56 5 67 C2.525 67.495 2.525 67.495 0 68 C0 45.56 0 23.12 0 0 Z " fill="#DBB7DB" transform="translate(373,219)"/>
<path d="M0 0 C1.87969971 0.29928589 1.87969971 0.29928589 4 1 C8.03642705 7.7345461 10.48417768 15.27601797 13.203125 22.6171875 C13.69035784 23.92386719 14.17789153 25.23043474 14.66571045 26.53689575 C15.68036367 29.25727684 16.69193295 31.97877764 17.70117188 34.70117188 C18.99606025 38.1935614 20.29790398 41.6833092 21.60191727 45.17230034 C22.60635013 47.86161494 23.60756424 50.55211856 24.60774994 53.24301529 C25.08690421 54.53118422 25.56696721 55.81901551 26.04795074 57.10650253 C26.71649519 58.89776807 27.38033876 60.69078599 28.04394531 62.48388672 C28.42270813 63.50344452 28.80147095 64.52300232 29.19171143 65.57345581 C30 68 30 68 30 70 C28.35 70 26.7 70 25 70 C24.76054153 69.35235184 24.52108307 68.70470367 24.27436829 68.03742981 C21.99576547 61.8751017 19.71633917 55.71307887 17.4360323 49.55138111 C16.26428799 46.38508389 15.09284074 43.21867748 13.92211914 40.05200195 C12.56996356 36.3950521 11.21671954 32.73850654 9.86328125 29.08203125 C9.24577751 27.41090019 9.24577751 27.41090019 8.61579895 25.70600891 C6.13084968 18.99641128 3.57304482 12.32307426 0.92277527 5.67680359 C0 3 0 3 0 0 Z " fill="#EEC7EE" transform="translate(434,217)"/>
<path d="M0 0 C1.32 0.33 2.64 0.66 4 1 C4 23.77 4 46.54 4 70 C2.68 70 1.36 70 0 70 C0 46.9 0 23.8 0 0 Z " fill="#FDD4FD" transform="translate(290,217)"/>
<path d="M0 0 C1.32 0 2.64 0 4 0 C4 22.77 4 45.54 4 69 C2.68 69 1.36 69 0 69 C0 46.23 0 23.46 0 0 Z " fill="#FED5FE" transform="translate(140,218)"/>
<path d="M0 0 C-1.1446875 0.99 -1.1446875 0.99 -2.3125 2 C-8.64027027 8.32777027 -9.1434852 17.83524913 -9.1875 26.3125 C-9.10084302 36.14325288 -8.06574913 44.39149204 -1.25 51.9375 C-0.63125 52.4634375 -0.63125 52.4634375 0 53 C-5.3767936 52.3707023 -7.17851154 50.08959114 -10.48828125 46.0546875 C-16.27086831 38.19515056 -15.6824922 27.30843534 -15 18 C-13.32613003 10.52216784 -10.38516754 3.88168152 -3.8125 -0.4375 C-2 -1 -2 -1 0 0 Z " fill="#E7C1E7" transform="translate(223,226)"/>
<path d="M0 0 C0.66 0 1.32 0 2 0 C2.83857688 2.60258324 3.67103344 5.20685647 4.5 7.8125 C4.73847656 8.55048828 4.97695313 9.28847656 5.22265625 10.04882812 C6.19940136 13.13255196 7 15.74495809 7 19 C3.04 19 -0.92 19 -5 19 C-4.35720991 16.20760027 -3.71091335 13.41609416 -3.0625 10.625 C-2.88009766 9.8309375 -2.69769531 9.036875 -2.50976562 8.21875 C-2.33251953 7.45820313 -2.15527344 6.69765625 -1.97265625 5.9140625 C-1.81031494 5.2123291 -1.64797363 4.5105957 -1.48071289 3.78759766 C-1 2 -1 2 0 0 Z " fill="#EFC9EF" transform="translate(419,261)"/>
<path d="M0 0 C2.46800047 1.15173355 4.04783565 2.04783565 6 4 C6.51156434 7.83673259 6.30501126 9.52670667 4.1875 12.8125 C2 15 2 15 -1 16 C-0.67 15.13375 -0.34 14.2675 0 13.375 C1.38916949 8.68655296 1.43870976 4.67580671 0 0 Z " fill="#E8C2E8" transform="translate(51,273)"/>
<path d="M0 0 C0.66 0.33 1.32 0.66 2 1 C-4.28571429 6.42857143 -4.28571429 6.42857143 -8 8 C-6.49776416 3.79373966 -3.71449966 2.26099979 0 0 Z " fill="#D8B5D8" transform="translate(221,225)"/>
</svg>
